<svg width="700" height="255" viewBox="0 0 700 255" fill="none" xmlns="http://www.w3.org/2000/svg">
<path fill-rule="evenodd" clip-rule="evenodd" d="M0 3.26704L19.25 39.2289C39.0833 75.1907 77.5833 147.114 116.667 159.102C155.75 171.089 194.25 123.14 233.333 99.1653C272.417 75.1907 310.917 75.1907 350 81.1844C389.083 87.178 427.583 99.1653 466.667 81.1844C505.75 63.2035 544.25 15.2543 583.333 3.26704C622.417 -8.72024 660.917 15.2543 680.75 27.2416L700 39.2289V255H680.75C660.917 255 622.417 255 583.333 255C544.25 255 505.75 255 466.667 255C427.583 255 389.083 255 350 255C310.917 255 272.417 255 233.333 255C194.25 255 155.75 255 116.667 255C77.5833 255 39.0833 255 19.25 255H0V3.26704Z" fill="#FF9642"/>
</svg>
